<svg width="24" height="24" viewBox="0 0 24 24" fill="none" xmlns="http://www.w3.org/2000/svg">
<path d="M10.64 18.77C10.7413 18.6861 10.825 18.583 10.8863 18.4666C10.9477 18.3503 10.9855 18.223 10.9975 18.092C11.0096 17.961 10.9957 17.829 10.9567 17.7033C10.9176 17.5777 10.8542 17.4611 10.77 17.36L7.14 13L19 13C19.2652 13 19.5196 12.8947 19.7071 12.7071C19.8946 12.5196 20 12.2652 20 12C20 11.7348 19.8946 11.4805 19.7071 11.2929C19.5196 11.1054 19.2652 11 19 11L7.14 11L10.77 6.64003C10.854 6.53891 10.9174 6.42223 10.9563 6.29665C10.9953 6.17106 11.0091 6.03904 10.997 5.90811C10.9849 5.77717 10.9472 5.6499 10.8859 5.53356C10.8247 5.41721 10.7411 5.31407 10.64 5.23003C10.5389 5.14598 10.4222 5.08268 10.2966 5.04372C10.171 5.00477 10.039 4.99094 9.90808 5.00301C9.77715 5.01508 9.64987 5.05282 9.53353 5.11408C9.41719 5.17534 9.31405 5.25891 9.23 5.36003L4.23 11.36L4.14 11.51L4.07 11.64C3.9806 11.8717 3.9806 12.1284 4.07 12.36L4.14 12.49L4.23 12.64L9.23 18.64C9.31395 18.7413 9.41705 18.825 9.5334 18.8863C9.64974 18.9477 9.77705 18.9855 9.90803 18.9976C10.039 19.0096 10.1711 18.9958 10.2967 18.9567C10.4223 18.9177 10.539 18.8542 10.64 18.77Z" fill="#1877F2"/>
</svg>
