<svg width="80" height="81" viewBox="0 0 80 81" fill="none" xmlns="http://www.w3.org/2000/svg">
<g opacity="0.32">
<path d="M40.0013 36.3338C55.6808 36.3338 64.9256 35.9941 69.5615 35.7486C71.707 35.6349 73.3346 33.8594 73.3346 31.7108V27.8148C73.3346 26.3158 72.8516 24.8451 71.79 23.7868C65.5623 17.5788 51.2501 9.57791 41.5513 7.46076C40.5265 7.23704 39.4761 7.23704 38.4513 7.46076C28.7525 9.57791 14.4403 17.5788 8.21262 23.7868C7.15095 24.8451 6.66797 26.3158 6.66797 27.8148V31.7108C6.66797 33.8594 8.29562 35.6349 10.4411 35.7486C15.077 35.9941 24.3218 36.3338 40.0013 36.3338Z" fill="#637381"/>
<path d="M7.26364 62.9293C7.69674 61.6719 8.95555 61.1001 10.2833 61.0248C13.7317 60.8289 22.1736 60.5004 40.0013 60.5004C57.829 60.5004 66.271 60.8289 69.7193 61.0248C71.047 61.1001 72.3058 61.6719 72.739 62.9293C73.0598 63.8609 73.3346 65.2254 73.3346 67.1671C73.3346 69.1088 73.0598 70.4733 72.739 71.4049C72.3058 72.6623 71.047 73.2341 69.7193 73.3094C66.271 73.5052 57.829 73.8338 40.0013 73.8338C22.1736 73.8338 13.7317 73.5052 10.2833 73.3094C8.95555 73.2341 7.69674 72.6623 7.26364 71.4049C6.94274 70.4733 6.66797 69.1088 6.66797 67.1671C6.66797 65.2254 6.94274 63.8609 7.26364 62.9293Z" fill="#637381"/>
</g>
<path d="M39.9987 30.5003C43.6806 30.5003 46.6654 27.5156 46.6654 23.8337C46.6654 20.1518 43.6806 17.167 39.9987 17.167C36.3168 17.167 33.332 20.1518 33.332 23.8337C33.332 27.5156 36.3168 30.5003 39.9987 30.5003Z" fill="#637381"/>
<path d="M46.4878 36.313C44.4593 36.3262 42.2982 36.3335 39.9987 36.3335C37.6992 36.3335 35.5381 36.3262 33.5096 36.313C33.4244 38.484 33.332 42.3373 33.332 48.8337C33.332 54.5653 33.404 58.2395 33.4794 60.5161C35.4987 60.5059 37.6685 60.5003 39.9987 60.5003C42.3289 60.5003 44.4987 60.5059 46.518 60.5161C46.5934 58.2395 46.6654 54.5653 46.6654 48.8337C46.6654 42.3373 46.573 38.484 46.4878 36.313Z" fill="#637381"/>
<path d="M53.5126 36.2377C53.4266 38.3945 53.332 42.2616 53.332 48.8337C53.332 54.6147 53.4052 58.3028 53.4814 60.5748C59.4879 60.6479 63.6728 60.7643 66.5057 60.8747C66.5854 58.6323 66.6654 54.8764 66.6654 48.8337C66.6654 41.8952 66.56 37.9717 66.4705 35.8928C63.3724 36.0209 59.1215 36.1522 53.5126 36.2377Z" fill="#637381"/>
<path d="M13.5269 35.8928C16.6249 36.0209 20.8758 36.1522 26.4848 36.2377C26.5708 38.3945 26.6654 42.2616 26.6654 48.8337C26.6654 54.6147 26.5922 58.3028 26.516 60.5748C20.5095 60.6479 16.3247 60.7643 13.4917 60.8747C13.412 58.6323 13.332 54.8764 13.332 48.8337C13.332 41.8952 13.4375 37.9717 13.5269 35.8928Z" fill="#637381"/>
</svg>
