<svg width="25" height="25" viewBox="0 0 25 25" fill="none" xmlns="http://www.w3.org/2000/svg">
<path fill-rule="evenodd" clip-rule="evenodd" d="M2.5 12.5C2.5 6.97715 6.97715 2.5 12.5 2.5C15.1522 2.5 17.6957 3.55357 19.5711 5.42893C21.4464 7.3043 22.5 9.84784 22.5 12.5C22.5 18.0228 18.0228 22.5 12.5 22.5C6.97715 22.5 2.5 18.0228 2.5 12.5ZM12.23 16.11L16.8 10.11V10.08C17.0179 9.79419 17.0668 9.41382 16.9283 9.08218C16.7897 8.75054 16.4848 8.51801 16.1283 8.47218C15.7718 8.42635 15.4179 8.57419 15.2 8.86L11.42 13.86L9.79 11.78C9.57028 11.4978 9.21668 11.3542 8.86239 11.4033C8.50811 11.4525 8.20696 11.6869 8.07239 12.0183C7.93783 12.3497 7.99028 12.7278 8.21 13.01L10.65 16.12C10.8408 16.3615 11.1322 16.5017 11.44 16.5C11.7495 16.4993 12.0412 16.3552 12.23 16.11Z" fill="#1877F2"/>
</svg>
