<svg width="48" height="48" viewBox="0 0 48 48" fill="none" xmlns="http://www.w3.org/2000/svg">
<path d="M48.003 14.0451V33.9546C48.003 35.2152 47.3029 36.3464 46.1763 36.9097L24.9706 47.6551C24.5086 47.8847 24.0035 48 23.4992 48H23.4786C22.9594 47.9962 22.4411 47.8726 21.9706 47.6269L21.9622 47.6223L1.77227 36.9069C0.679448 36.3342 0 35.2133 0 33.979V14.0207C0 13.4575 0.14054 12.9195 0.397431 12.4453C0.704856 11.8792 1.1772 11.405 1.77236 11.0938L21.9705 0.373738C22.9059 -0.114542 24.0268 -0.124855 24.9706 0.345611L24.98 0.349361L46.1764 11.09C46.7988 11.4012 47.2908 11.8857 47.6057 12.4696C47.8624 12.9429 48.003 13.4809 48.003 14.0451Z" fill="#1977F2"/>
<path d="M47.997 14.0442V33.9537C47.997 35.2143 47.2969 36.3455 46.1704 36.9088L24.9647 47.6542C24.5027 47.8838 23.9975 47.9991 23.4933 47.9991H23.4727V24.3912L47.5998 12.4688C47.8565 12.942 47.997 13.48 47.997 14.0442Z" fill="#FFAB00"/>
<path d="M47.6066 12.4699L36.8622 17.7793L34.2192 19.0858L23.4795 24.3924L0.398438 12.4456C0.705863 11.8795 1.1782 11.4053 1.77337 11.0941L10.4325 6.49789L13.4344 4.9046L21.9717 0.374042C22.4431 0.127558 22.9613 0.0028629 23.4796 5.02265e-05C23.9913 -0.00276245 24.5031 0.112557 24.9716 0.345915L24.981 0.349666L46.1774 11.0903C46.7997 11.4015 47.2917 11.886 47.6066 12.4699Z" fill="#FFF5CC"/>
<path d="M36.9186 18.1811C36.9186 18.1811 36.9186 18.1811 36.9186 18.1821V25.5758C36.9186 26.3519 36.2888 26.9817 35.5127 26.9817C34.7367 26.9817 34.1069 26.3519 34.1069 25.5758V19.0293L23.4768 13.4041L10.4297 6.49954L13.4317 4.90625L23.4768 10.2222L36.1706 16.9393C36.1725 16.9403 36.1744 16.9412 36.1762 16.9422C36.2034 16.9572 36.2297 16.974 36.2559 16.99C36.27 16.9984 36.285 17.0068 36.2991 17.0162L36.3 17.0172C36.4097 17.0912 36.5062 17.1793 36.5877 17.2768C36.5915 17.2815 36.5952 17.2852 36.5981 17.289C36.6187 17.3133 36.6365 17.3396 36.6552 17.3649C36.6637 17.3771 36.6731 17.3883 36.6815 17.4015C36.6946 17.4202 36.7049 17.4399 36.7171 17.4596C36.7293 17.4802 36.7424 17.5008 36.7537 17.5224C36.7603 17.5346 36.7659 17.5468 36.7715 17.559C36.7865 17.589 36.8006 17.619 36.8137 17.6499C36.8156 17.6546 36.8165 17.6584 36.8184 17.6621C36.8343 17.7015 36.8474 17.7409 36.8587 17.7812C36.885 17.8646 36.9028 17.9517 36.9112 18.0417C36.9158 18.0883 36.9186 18.1343 36.9186 18.1811Z" fill="#1977F2"/>
<path d="M36.925 18.1776C36.925 18.1776 36.925 18.1776 36.925 18.1785V25.5723C36.925 26.3483 36.2952 26.9782 35.5191 26.9782C34.7431 26.9782 34.1133 26.3483 34.1133 25.5723V19.1373L36.865 17.7773C36.8913 17.8608 36.9091 17.9479 36.9175 18.0379C36.9222 18.0848 36.925 18.1307 36.925 18.1776Z" fill="#1977F2"/>
</svg>
