 <svg
      width="18"
      height="18"
      viewBox="0 0 18 18"
      fill="none"
      xmlns="http://www.w3.org/2000/svg"
    >
      <path
        fillRule="evenodd"
        clipRule="evenodd"
        d="M8.99567 10.0563L13.2364 14.2973C13.3778 14.4339 13.5671 14.5094 13.7637 14.5077C13.9602 14.506 14.1482 14.4272 14.2872 14.2882C14.4262 14.1492 14.5051 13.9612 14.5068 13.7646C14.5085 13.568 14.4329 13.3786 14.2964 13.2373L10.0557 8.99625L14.2964 4.75525C14.4329 4.61386 14.5085 4.42448 14.5068 4.22792C14.5051 4.03135 14.4262 3.84332 14.2872 3.70432C14.1482 3.56532 13.9602 3.48648 13.7637 3.48477C13.5671 3.48306 13.3778 3.55863 13.2364 3.69519L8.99567 7.93619L4.75497 3.69519C4.61295 3.562 4.42469 3.4893 4.23002 3.49246C4.03535 3.49562 3.84955 3.5744 3.71193 3.71213C3.57431 3.84985 3.49567 4.03572 3.49264 4.23041C3.48962 4.42509 3.56245 4.61332 3.69573 4.75525L7.93568 8.99625L3.69498 13.2373C3.62338 13.3064 3.56627 13.3891 3.52699 13.4806C3.4877 13.5721 3.46702 13.6704 3.46615 13.77C3.46529 13.8695 3.48426 13.9682 3.52195 14.0604C3.55964 14.1525 3.6153 14.2362 3.68569 14.3066C3.75607 14.377 3.83977 14.4327 3.9319 14.4704C4.02403 14.5081 4.12274 14.527 4.22228 14.5262C4.32181 14.5253 4.42018 14.5046 4.51164 14.4653C4.6031 14.426 4.68582 14.3689 4.75497 14.2973L8.99567 10.0563Z"
        fill="#FF5630"
      />
    </svg>