<svg width="45" height="48" viewBox="0 0 45 48" fill="none" xmlns="http://www.w3.org/2000/svg">
<path d="M25.5443 39.8245C33.3085 37.9892 38.1148 30.2073 36.2795 22.4432C34.4442 14.6791 26.6623 9.87281 18.8981 11.7081C11.134 13.5434 6.32765 21.3253 8.16295 29.0894C9.99825 36.8536 17.7802 41.6598 25.5443 39.8245Z" fill="#FFD666"/>
<path d="M22.2188 11.332V40.2287C30.1856 40.2287 36.667 33.7472 36.667 25.7804C36.667 17.8136 30.1855 11.332 22.2188 11.332Z" fill="#FFAB00"/>
<path d="M37.9309 10.0692C34.4912 6.62951 30.1221 4.4576 25.3901 3.78551L26.775 2.40054C27.3242 1.85135 27.3242 0.961008 26.775 0.411821C26.2259 -0.137274 25.3355 -0.137274 24.7863 0.411821L21.225 3.9731C20.6758 4.5222 20.6758 5.41264 21.225 5.96182L24.7862 9.52301C25.0608 9.79761 25.4207 9.93495 25.7805 9.93495C26.1403 9.93495 26.5003 9.79761 26.7748 9.52301C27.324 8.97392 27.324 8.08348 26.7748 7.53429L25.9815 6.74098C34.888 8.49786 41.6261 16.3666 41.6261 25.7806C41.6263 36.4816 32.9203 45.1875 22.2194 45.1875C11.5185 45.1875 2.8125 36.4816 2.8125 25.7807C2.8125 21.6974 4.06566 17.7914 6.4366 14.485C8.75832 11.2472 11.9589 8.83114 15.6927 7.4982C16.4242 7.23701 16.8054 6.43245 16.5443 5.70092C16.2832 4.96948 15.4784 4.58829 14.747 4.84939C10.4717 6.37573 6.80766 9.14098 4.15088 12.8461C1.43531 16.6332 0 21.1059 0 25.7808C0 31.7158 2.31122 37.2955 6.50794 41.4922C10.7047 45.6887 16.2844 48 22.2194 48C28.1545 48 33.7342 45.6888 37.9309 41.4922C42.1276 37.2954 44.4388 31.7157 44.4388 25.7807C44.4388 19.8456 42.1275 14.2658 37.9309 10.0692Z" fill="#1890FF"/>
<path d="M23.9352 24.387C22.8228 23.9938 21.594 23.5199 20.915 22.9874C20.7451 22.8541 20.6726 22.5165 20.7386 22.1661C20.7732 21.9824 20.9342 21.3685 21.5525 21.1823C22.6407 20.8545 23.3821 21.2856 23.6504 21.486C24.2727 21.9512 25.1538 21.8238 25.6187 21.2017C26.0838 20.5796 25.9565 19.6984 25.3344 19.2334C25.0766 19.0407 24.4479 18.6285 23.5481 18.4047V18.0273C23.5481 17.2507 22.9185 16.6211 22.1419 16.6211C21.3652 16.6211 20.7356 17.2507 20.7356 18.0273V18.4913C19.3182 18.9207 18.2605 20.1285 17.9748 21.6452C17.7105 23.048 18.172 24.4102 19.1794 25.2003C20.1757 25.9817 21.6034 26.5457 22.9978 27.0386C24.0978 27.4274 24.1302 28.2697 24.0516 28.7371C23.9205 29.5174 23.2639 30.3608 22.1325 30.3683C20.951 30.376 20.6149 30.3228 19.7232 29.7394C19.0731 29.3141 18.2017 29.4963 17.7765 30.1464C17.3513 30.7964 17.5335 31.6679 18.1834 32.0931C19.1534 32.7276 19.8802 33.0044 20.7356 33.1152V33.5371C20.7356 34.3137 21.3652 34.9433 22.1419 34.9433C22.9185 34.9433 23.5481 34.3137 23.5481 33.5371V32.9714C24.2107 32.7698 24.8163 32.4255 25.3382 31.946C26.1207 31.2271 26.6487 30.253 26.8252 29.2033C27.1854 27.0609 26.024 25.1253 23.9352 24.387Z" fill="#B76E00"/>
<path d="M25.3894 3.78551L26.7743 2.40054C27.3235 1.85135 27.3235 0.961008 26.7743 0.411821C26.2252 -0.137274 25.3348 -0.137274 24.7856 0.411821L21.2244 3.9731C20.6752 4.5222 20.6752 5.41264 21.2244 5.96182L24.7856 9.52301C25.0602 9.79761 25.4201 9.93495 25.7799 9.93495C26.1397 9.93495 26.4997 9.79761 26.7742 9.52301C27.3234 8.97392 27.3234 8.08348 26.7742 7.53429L25.9809 6.74098C34.8873 8.49786 41.6255 16.3666 41.6255 25.7806C41.6257 36.4816 32.9197 45.1875 22.2188 45.1875V48C28.1538 48 33.7336 45.6888 37.9303 41.4922C42.127 37.2954 44.4382 31.7157 44.4382 25.7807C44.4382 19.8456 42.127 14.2659 37.9303 10.0692C34.4906 6.62951 30.1215 4.45751 25.3894 3.78551Z" fill="#1890FF"/>
<path d="M23.9357 24.3863C23.3638 24.1842 22.7617 23.9605 22.2188 23.7188V26.7543C22.4778 26.852 22.7386 26.9463 22.9983 27.0381C24.0983 27.4268 24.1307 28.2692 24.0521 28.7366C23.9244 29.4966 23.2968 30.3142 22.2188 30.3633V34.9389C22.9597 34.899 23.5486 34.2874 23.5486 33.5365V32.9708C24.2112 32.7693 24.8168 32.4249 25.3387 31.9455C26.1212 31.2265 26.6492 30.2525 26.8257 29.2027C27.1859 27.0603 26.0245 25.1247 23.9357 24.3863Z" fill="#B76E00"/>
<path d="M22.2188 16.625V21.0672C22.9435 21.0347 23.4416 21.3297 23.6509 21.4861C24.2732 21.9513 25.1543 21.824 25.6192 21.2019C26.0843 20.5797 25.957 19.6986 25.3349 19.2336C25.0771 19.0408 24.4484 18.6286 23.5486 18.4048V18.0275C23.5486 17.2766 22.9597 16.6649 22.2188 16.625Z" fill="#B76E00"/>
</svg>
