<svg width="24" height="24" viewBox="0 0 24 24" fill="none" xmlns="http://www.w3.org/2000/svg">
<path d="M21.9 10.9987C21.9 10.8887 21.84 10.7787 21.81 10.6687C21.7637 10.4746 21.7036 10.2841 21.63 10.0987C21.58 9.97865 21.51 9.85865 21.45 9.72865C21.39 9.59865 21.3 9.42865 21.21 9.28865C21.12 9.14865 21 9.07865 21 8.99865C21 8.91865 20.8 8.74865 20.69 8.62865C20.58 8.50865 20.48 8.42865 20.37 8.32865L20 7.99865L19.64 7.75865C19.4987 7.67217 19.3517 7.59533 19.2 7.52865L18.81 7.34865C18.6467 7.28816 18.4797 7.23806 18.31 7.19865C18.1756 7.15912 18.0386 7.12904 17.9 7.10865H17.72C17.3348 5.90791 16.5811 4.85905 15.5659 4.11104C14.5507 3.36302 13.3257 2.95386 12.0647 2.94169C10.8038 2.92951 9.57103 3.31492 8.54158 4.0432C7.51213 4.77147 6.73831 5.80558 6.33 6.99865H6.15C6.0114 7.01904 5.8744 7.04912 5.74 7.08865C5.57034 7.12806 5.40334 7.17816 5.24 7.23865L4.85 7.41865C4.69832 7.48533 4.55132 7.56217 4.41 7.64865L4.05 7.99865L3.68 8.30865C3.57 8.40865 3.46 8.49865 3.36 8.60865C3.26 8.71865 3.15 8.85865 3.05 8.97865C2.95 9.09865 2.87 9.20865 2.79 9.33865C2.71 9.46865 2.63 9.62865 2.55 9.77865C2.47 9.92865 2.42 10.0287 2.37 10.1487C2.29644 10.3341 2.23629 10.5246 2.19 10.7187C2.19 10.8287 2.12 10.9387 2.1 11.0487C2.03776 11.3616 2.00428 11.6796 2 11.9987C2.00469 12.304 2.03479 12.6083 2.09 12.9087C2.09 13.0087 2.14 13.0987 2.16 13.1987C2.20943 13.3951 2.26952 13.5887 2.34 13.7787L2.46 14.0687C2.54803 14.2615 2.64823 14.4485 2.76 14.6287L2.9 14.8487C2.91439 14.8767 2.93111 14.9034 2.95 14.9287L3 14.9987C3.46574 15.6196 4.06965 16.1236 4.76393 16.4708C5.45821 16.8179 6.22377 16.9987 7 16.9987C7.00223 16.4691 7.21441 15.962 7.59 15.5887C7.96335 15.2131 8.47042 15.0009 9 14.9987C9.35177 14.9953 9.6977 15.0887 10 15.2687V11.9987C10 11.4682 10.2107 10.9595 10.5858 10.5844C10.9609 10.2094 11.4696 9.99865 12 9.99865C12.5304 9.99865 13.0391 10.2094 13.4142 10.5844C13.7893 10.9595 14 11.4682 14 11.9987V15.3687C14.3038 15.1924 14.6487 15.0993 15 15.0987C15.5417 15.1037 16.0595 15.323 16.44 15.7087C16.7767 16.0567 16.9757 16.515 17 16.9987C17.7762 16.9987 18.5418 16.8179 19.2361 16.4708C19.9303 16.1236 20.5343 15.6196 21 14.9987L21.05 14.9487C21.0689 14.9234 21.0856 14.8967 21.1 14.8687L21.24 14.6487C21.3518 14.4685 21.452 14.2815 21.54 14.0887L21.66 13.7987C21.7305 13.6087 21.7906 13.4151 21.84 13.2187C21.84 13.1187 21.89 13.0287 21.91 12.9287C21.9663 12.6218 21.9964 12.3106 22 11.9987C21.9988 11.6629 21.9654 11.328 21.9 10.9987Z" fill="#1877F2"/>
<path d="M14.31 16.3787L13 17.6387V11.9987C13 11.7334 12.8946 11.4791 12.7071 11.2915C12.5196 11.104 12.2652 10.9987 12 10.9987C11.7348 10.9987 11.4804 11.104 11.2929 11.2915C11.1054 11.4791 11 11.7334 11 11.9987V17.5887L9.71 16.2887C9.61676 16.1954 9.50607 16.1215 9.38425 16.071C9.26243 16.0205 9.13186 15.9946 9 15.9946C8.86814 15.9946 8.73757 16.0205 8.61575 16.071C8.49393 16.1215 8.38324 16.1954 8.29 16.2887C8.19676 16.3819 8.1228 16.4926 8.07234 16.6144C8.02188 16.7362 7.99591 16.8668 7.99591 16.9987C7.99591 17.1305 8.02188 17.2611 8.07234 17.3829C8.1228 17.5047 8.19676 17.6154 8.29 17.7087L11.29 20.7087C11.3834 20.8013 11.4943 20.8747 11.6161 20.9244C11.7379 20.9742 11.8684 20.9994 12 20.9987C12.2575 20.9976 12.5046 20.8973 12.69 20.7187L15.69 17.8187C15.7961 17.7311 15.883 17.6226 15.9453 17.4999C16.0075 17.3772 16.0438 17.243 16.0518 17.1057C16.0599 16.9684 16.0395 16.8308 15.9919 16.7017C15.9444 16.5727 15.8707 16.4548 15.7755 16.3554C15.6803 16.2561 15.5657 16.1775 15.4387 16.1245C15.3118 16.0715 15.1753 16.0453 15.0377 16.0475C14.9002 16.0496 14.7645 16.0802 14.6393 16.1372C14.5141 16.1942 14.402 16.2764 14.31 16.3787Z" fill="#1877F2"/>
<path d="M21.9 10.9987C21.9 10.8887 21.84 10.7787 21.81 10.6687C21.7637 10.4746 21.7036 10.2841 21.63 10.0987C21.58 9.97865 21.51 9.85865 21.45 9.72865C21.39 9.59865 21.3 9.42865 21.21 9.28865C21.12 9.14865 21 9.07865 21 8.99865C21 8.91865 20.8 8.74865 20.69 8.62865C20.58 8.50865 20.48 8.42865 20.37 8.32865L20 7.99865L19.64 7.75865C19.4987 7.67217 19.3517 7.59533 19.2 7.52865L18.81 7.34865C18.6467 7.28816 18.4797 7.23806 18.31 7.19865C18.1756 7.15912 18.0386 7.12904 17.9 7.10865H17.72C17.3348 5.90791 16.5811 4.85905 15.5659 4.11104C14.5507 3.36302 13.3257 2.95386 12.0647 2.94169C10.8038 2.92951 9.57103 3.31492 8.54158 4.0432C7.51213 4.77147 6.73831 5.80558 6.33 6.99865H6.15C6.0114 7.01904 5.8744 7.04912 5.74 7.08865C5.57034 7.12806 5.40334 7.17816 5.24 7.23865L4.85 7.41865C4.69832 7.48533 4.55132 7.56217 4.41 7.64865L4.05 7.99865L3.68 8.30865C3.57 8.40865 3.46 8.49865 3.36 8.60865C3.26 8.71865 3.15 8.85865 3.05 8.97865C2.95 9.09865 2.87 9.20865 2.79 9.33865C2.71 9.46865 2.63 9.62865 2.55 9.77865C2.47 9.92865 2.42 10.0287 2.37 10.1487C2.29644 10.3341 2.23629 10.5246 2.19 10.7187C2.19 10.8287 2.12 10.9387 2.1 11.0487C2.03776 11.3616 2.00428 11.6796 2 11.9987C2.00469 12.304 2.03479 12.6083 2.09 12.9087C2.09 13.0087 2.14 13.0987 2.16 13.1987C2.20943 13.3951 2.26952 13.5887 2.34 13.7787L2.46 14.0687C2.54803 14.2615 2.64823 14.4485 2.76 14.6287L2.9 14.8487C2.91439 14.8767 2.93111 14.9034 2.95 14.9287L3 14.9987C3.46574 15.6196 4.06965 16.1236 4.76393 16.4708C5.45821 16.8179 6.22377 16.9987 7 16.9987C7.00223 16.4691 7.21441 15.962 7.59 15.5887C7.96335 15.2131 8.47042 15.0009 9 14.9987C9.35177 14.9953 9.6977 15.0887 10 15.2687V11.9987C10 11.4682 10.2107 10.9595 10.5858 10.5844C10.9609 10.2094 11.4696 9.99865 12 9.99865C12.5304 9.99865 13.0391 10.2094 13.4142 10.5844C13.7893 10.9595 14 11.4682 14 11.9987V15.3687C14.3038 15.1924 14.6487 15.0993 15 15.0987C15.5417 15.1037 16.0595 15.323 16.44 15.7087C16.7767 16.0567 16.9757 16.515 17 16.9987C17.7762 16.9987 18.5418 16.8179 19.2361 16.4708C19.9303 16.1236 20.5343 15.6196 21 14.9987L21.05 14.9487C21.0689 14.9234 21.0856 14.8967 21.1 14.8687L21.24 14.6487C21.3518 14.4685 21.452 14.2815 21.54 14.0887L21.66 13.7987C21.7305 13.6087 21.7906 13.4151 21.84 13.2187C21.84 13.1187 21.89 13.0287 21.91 12.9287C21.9663 12.6218 21.9964 12.3106 22 11.9987C21.9988 11.6629 21.9654 11.328 21.9 10.9987Z" fill="#1877F2"/>
<path d="M14.31 16.3787L13 17.6387V11.9987C13 11.7334 12.8946 11.4791 12.7071 11.2915C12.5196 11.104 12.2652 10.9987 12 10.9987C11.7348 10.9987 11.4804 11.104 11.2929 11.2915C11.1054 11.4791 11 11.7334 11 11.9987V17.5887L9.71 16.2887C9.61676 16.1954 9.50607 16.1215 9.38425 16.071C9.26243 16.0205 9.13186 15.9946 9 15.9946C8.86814 15.9946 8.73757 16.0205 8.61575 16.071C8.49393 16.1215 8.38324 16.1954 8.29 16.2887C8.19676 16.3819 8.1228 16.4926 8.07234 16.6144C8.02188 16.7362 7.99591 16.8668 7.99591 16.9987C7.99591 17.1305 8.02188 17.2611 8.07234 17.3829C8.1228 17.5047 8.19676 17.6154 8.29 17.7087L11.29 20.7087C11.3834 20.8013 11.4943 20.8747 11.6161 20.9244C11.7379 20.9742 11.8684 20.9994 12 20.9987C12.2575 20.9976 12.5046 20.8973 12.69 20.7187L15.69 17.8187C15.7961 17.7311 15.883 17.6226 15.9453 17.4999C16.0075 17.3772 16.0438 17.243 16.0518 17.1057C16.0599 16.9684 16.0395 16.8308 15.9919 16.7017C15.9444 16.5727 15.8707 16.4548 15.7755 16.3554C15.6803 16.2561 15.5657 16.1775 15.4387 16.1245C15.3118 16.0715 15.1753 16.0453 15.0377 16.0475C14.9002 16.0496 14.7645 16.0802 14.6393 16.1372C14.5141 16.1942 14.402 16.2764 14.31 16.3787Z" fill="#1877F2"/>
</svg>
