<svg width="24" height="24" viewBox="0 0 24 24" fill="none" xmlns="http://www.w3.org/2000/svg">
<path fill-rule="evenodd" clip-rule="evenodd" d="M1.60598 6.07998C1.72673 6.02828 1.85648 6.00088 1.98782 5.99934C2.11916 5.99779 2.24952 6.02214 2.37145 6.07099C2.49338 6.11983 2.60449 6.19222 2.69844 6.28402C2.79238 6.37581 2.86733 6.48522 2.91899 6.60598L1.99999 6.99998L2.91999 6.60598L2.92299 6.61398L2.94399 6.65898C2.96399 6.70098 2.99499 6.76698 3.03799 6.85298C3.12399 7.02498 3.25698 7.27698 3.43798 7.58198C3.91507 8.38388 4.47478 9.13363 5.10799 9.81898C5.2977 10.0231 5.49448 10.2206 5.69799 10.411C7.17999 11.8 9.25098 13 12 13C13.1017 13.0049 14.1944 12.8006 15.22 12.398C16.447 11.915 17.474 11.188 18.316 10.4C19.4412 9.33069 20.3667 8.06927 21.049 6.67498L21.076 6.61698L21.081 6.60598C21.1879 6.36599 21.3851 6.17774 21.6297 6.08193C21.8744 5.98612 22.1469 5.99045 22.3884 6.09398C22.6299 6.19751 22.8209 6.39193 22.9202 6.6352C23.0195 6.87847 23.0191 7.15104 22.919 7.39398L22.917 7.39898L22.913 7.40698L22.902 7.43298L22.862 7.51998C22.6398 7.98251 22.3924 8.43252 22.121 8.86798C21.6213 9.67103 21.0485 10.4262 20.41 11.124L21.207 11.921C21.3946 12.1085 21.5001 12.3629 21.5002 12.6281C21.5003 12.8934 21.395 13.1478 21.2075 13.3355C21.02 13.5231 20.7656 13.6286 20.5003 13.6287C20.2351 13.6288 19.9806 13.5235 19.793 13.336L18.953 12.496C18.3625 12.9747 17.7273 13.3953 17.056 13.752L17.838 14.954C17.9118 15.064 17.9629 15.1876 17.9886 15.3176C18.0142 15.4475 18.0137 15.5813 17.9872 15.7111C17.9607 15.8409 17.9086 15.9641 17.8341 16.0736C17.7595 16.1831 17.664 16.2767 17.553 16.349C17.442 16.4212 17.3177 16.4707 17.1874 16.4946C17.0571 16.5184 16.9233 16.5161 16.7939 16.4878C16.6645 16.4596 16.542 16.4058 16.4335 16.3298C16.325 16.2538 16.2327 16.157 16.162 16.045L15.176 14.531C14.497 14.739 13.772 14.886 13 14.955V16.5C13 16.7652 12.8946 17.0196 12.7071 17.2071C12.5196 17.3946 12.2652 17.5 12 17.5C11.7348 17.5 11.4804 17.3946 11.2929 17.2071C11.1053 17.0196 11 16.7652 11 16.5V14.956C10.225 14.886 9.49998 14.739 8.82299 14.531L7.83799 16.045C7.69009 16.2595 7.46432 16.4078 7.20874 16.4583C6.95315 16.5089 6.68793 16.4577 6.46953 16.3156C6.25112 16.1736 6.09677 15.9519 6.03933 15.6978C5.98189 15.4437 6.0259 15.1771 6.16199 14.955L6.94398 13.752C6.24399 13.382 5.61199 12.952 5.04699 12.495L4.20698 13.335C4.01838 13.5171 3.76578 13.6179 3.50358 13.6157C3.24139 13.6134 2.99057 13.5082 2.80517 13.3228C2.61976 13.1374 2.51459 12.8866 2.51231 12.6244C2.51003 12.3622 2.61083 12.1096 2.79299 11.921L3.58998 11.124C2.88256 10.3501 2.25598 9.50609 1.71999 8.60498C1.50588 8.24537 1.30866 7.87597 1.12899 7.49798C1.11781 7.47406 1.10681 7.45006 1.09599 7.42598L1.08599 7.40498L1.08399 7.39798L1.08298 7.39598C1.07999 7.39598 1.07999 7.39398 1.99999 6.99998L1.08099 7.39498C1.0291 7.27424 1.00153 7.14446 0.999839 7.01305C0.998148 6.88165 1.02237 6.7512 1.07113 6.62916C1.11989 6.50713 1.19223 6.3959 1.284 6.30184C1.37577 6.20778 1.48519 6.13173 1.60598 6.07998Z" fill="#637381"/>
</svg>
