<svg width="81" height="81" viewBox="0 0 81 81" fill="none" xmlns="http://www.w3.org/2000/svg">
<path fill-rule="evenodd" clip-rule="evenodd" d="M47.168 73.8337H33.8346C21.2646 73.8337 14.978 73.8337 11.0746 69.927C7.16797 66.0237 7.16797 59.737 7.16797 47.167V33.8337C7.16797 21.2637 7.16797 14.977 11.0746 11.0737C14.978 7.16699 21.298 7.16699 33.9346 7.16699C35.9546 7.16699 37.5713 7.16699 38.9346 7.22366C38.8913 7.49033 38.868 7.76033 38.868 8.03699L38.8346 17.4837C38.8346 21.1403 38.8346 24.3737 39.1846 26.977C39.5646 29.8003 40.4346 32.6237 42.7413 34.9303C45.0413 37.2303 47.868 38.1037 50.6913 38.4837C53.2946 38.8337 56.528 38.8337 60.1846 38.8337H73.6913C73.8346 40.6137 73.8346 42.8003 73.8346 45.7103V47.167C73.8346 59.737 73.8346 66.0237 69.928 69.927C66.0246 73.8337 59.738 73.8337 47.168 73.8337ZM18.0013 48.8337C18.0013 48.1706 18.2647 47.5347 18.7335 47.0659C19.2024 46.597 19.8383 46.3337 20.5013 46.3337H47.168C47.831 46.3337 48.4669 46.597 48.9357 47.0659C49.4046 47.5347 49.668 48.1706 49.668 48.8337C49.668 49.4967 49.4046 50.1326 48.9357 50.6014C48.4669 51.0703 47.831 51.3337 47.168 51.3337H20.5013C19.8383 51.3337 19.2024 51.0703 18.7335 50.6014C18.2647 50.1326 18.0013 49.4967 18.0013 48.8337ZM18.0013 60.5003C18.0013 59.8373 18.2647 59.2014 18.7335 58.7326C19.2024 58.2637 19.8383 58.0003 20.5013 58.0003H38.8346C39.4977 58.0003 40.1336 58.2637 40.6024 58.7326C41.0712 59.2014 41.3346 59.8373 41.3346 60.5003C41.3346 61.1634 41.0712 61.7993 40.6024 62.2681C40.1336 62.7369 39.4977 63.0003 38.8346 63.0003H20.5013C19.8383 63.0003 19.2024 62.7369 18.7335 62.2681C18.2647 61.7993 18.0013 61.1634 18.0013 60.5003Z" fill="#637381"/>
<path d="M65.008 25.8903L51.808 14.0137C48.0513 10.6303 46.1746 8.93699 43.8646 8.05366L43.8346 17.167C43.8346 25.0237 43.8346 28.9537 46.2746 31.3937C48.7146 33.8337 52.6446 33.8337 60.5013 33.8337H72.4346C71.228 31.487 69.0613 29.5403 65.008 25.8903Z" fill="#637381"/>
</svg>
