<svg width="16" height="16" viewBox="0 0 16 16" fill="none" xmlns="http://www.w3.org/2000/svg">
<path opacity="0.32" fill-rule="evenodd" clip-rule="evenodd" d="M13.4834 1.74902C14.0462 1.86885 14.4215 2.32195 14.4806 2.89435C14.5683 3.74308 14.668 5.30138 14.668 7.99935C14.668 10.6973 14.5683 12.2556 14.4806 13.1043C14.4215 13.6768 14.0462 14.1299 13.4834 14.2497C12.595 14.4388 10.9202 14.666 8.0013 14.666C5.08237 14.666 3.40763 14.4388 2.51923 14.2497C1.95637 14.1299 1.58107 13.6768 1.52197 13.1043C1.4343 12.2556 1.33464 10.6973 1.33464 7.99935C1.33464 5.30138 1.4343 3.74308 1.52197 2.89435C1.58107 2.32195 1.95637 1.86885 2.5192 1.74902C3.40763 1.55988 5.08237 1.33268 8.0013 1.33268C10.9202 1.33268 12.595 1.55988 13.4834 1.74902ZM4.66797 10.4176V5.84198C4.67225 5.60212 4.77041 5.37352 4.94132 5.2054C5.11222 5.03729 5.3422 4.94309 5.58176 4.94309C5.82133 4.94309 6.05131 5.03729 6.22221 5.2054C6.39312 5.37352 6.49128 5.60212 6.49556 5.84198V8.22129L9.76824 4.93579C10.1262 4.5764 10.7078 4.57604 11.0662 4.93499C11.4234 5.29265 11.4245 5.87144 11.0674 6.22918C9.91861 7.38011 8.20383 9.09103 7.77488 9.50245L10.1507 9.50245C10.3903 9.50674 10.6185 9.60504 10.7864 9.77619C10.9543 9.94734 11.0483 10.1777 11.0483 10.4176C11.0483 10.6575 10.9543 10.8878 10.7864 11.0589C10.6185 11.2301 10.3903 11.3284 10.1507 11.3327H5.58176C5.33963 11.332 5.10763 11.2353 4.93641 11.0639C4.7652 10.8924 4.66869 10.66 4.66797 10.4176Z" fill="#1977F2"/>
<path d="M4.66536 5.84329L4.66536 10.4189C4.66609 10.6613 4.7626 10.8937 4.93381 11.0652C5.10502 11.2366 5.33703 11.3333 5.57916 11.334L10.1481 11.334C10.3877 11.3297 10.6159 11.2314 10.7838 11.0602C10.9517 10.8891 11.0457 10.6588 11.0457 10.4189C11.0457 10.179 10.9517 9.94864 10.7838 9.77749C10.6159 9.60634 10.3877 9.50804 10.1481 9.50375H7.77227C8.20122 9.09233 9.916 7.38141 11.0648 6.23048C11.4218 5.87274 11.4208 5.29395 11.0636 4.93629C10.7052 4.57735 10.1236 4.57771 9.76563 4.93709L6.49296 8.22259L6.49296 5.84329C6.48867 5.60342 6.39051 5.37482 6.21961 5.20671C6.04871 5.03859 5.81872 4.94439 5.57916 4.94439C5.3396 4.94439 5.10961 5.03859 4.93871 5.20671C4.76781 5.37482 4.66965 5.60342 4.66536 5.84329Z" fill="#1977F2"/>
</svg>
