<svg width="80" height="80" viewBox="0 0 80 80" fill="none" xmlns="http://www.w3.org/2000/svg">
<path d="M27.8402 67.4732C29.2907 69.3073 31.139 70.7879 33.2456 71.8031C35.3521 72.8182 37.6618 73.3414 40.0002 73.3332C42.3386 73.3414 44.6483 72.8182 46.7548 71.8031C48.8614 70.7879 50.7097 69.3073 52.1602 67.4732C44.0904 68.5671 35.91 68.5671 27.8402 67.4732Z" fill="#637381"/>
<path fill-rule="evenodd" clip-rule="evenodd" d="M62.5002 32.3465V29.9998C62.5002 17.1132 52.4235 6.6665 40.0002 6.6665C27.5769 6.6665 17.5002 17.1132 17.5002 29.9998V32.3465C17.5002 35.1632 16.7002 37.9165 15.1935 40.2598L11.5002 46.0032C8.13021 51.2498 10.7035 58.3798 16.5669 60.0365C31.8877 64.3764 48.1127 64.3764 63.4335 60.0365C69.2969 58.3798 71.8702 51.2498 68.5002 46.0032L64.8069 40.2598C63.2951 37.8976 62.4967 35.151 62.5002 32.3465ZM40.0002 17.4998C40.6632 17.4998 41.2991 17.7632 41.768 18.2321C42.2368 18.7009 42.5002 19.3368 42.5002 19.9998V33.3332C42.5002 33.9962 42.2368 34.6321 41.768 35.1009C41.2991 35.5698 40.6632 35.8332 40.0002 35.8332C39.3372 35.8332 38.7013 35.5698 38.2324 35.1009C37.7636 34.6321 37.5002 33.9962 37.5002 33.3332V19.9998C37.5002 19.3368 37.7636 18.7009 38.2324 18.2321C38.7013 17.7632 39.3372 17.4998 40.0002 17.4998Z" fill="#637381"/>
</svg>
