<svg width="32" height="33" viewBox="0 0 32 33" fill="none" xmlns="http://www.w3.org/2000/svg">
<g clip-path="url(#clip0_1009_6597)">
<path d="M18.3705 0.5C18.9006 0.5 19.4091 0.710507 19.7841 1.08526L29.0121 10.3063C29.3875 10.6814 29.5984 11.1904 29.5984 11.7211V28.7667C29.5984 30.8285 27.8935 32.5 25.7904 32.5H6.20644C4.10334 32.5 2.39844 30.8285 2.39844 28.7667V4.23333C2.39844 2.17147 4.10334 0.5 6.20644 0.5H18.3705Z" fill="#22C55E"/>
<g filter="url(#filter0_d_1009_6597)">
<path d="M27.9556 10.0405C28.2686 10.356 28.0451 10.8926 27.6006 10.8926H23.2008C21.1389 10.8926 19.2789 9.079 19.2789 7.06864V2.50669C19.2789 2.06025 19.8195 1.83762 20.1339 2.15459L27.9556 10.0405Z" fill="white" fill-opacity="0.24" shape-rendering="crispEdges"/>
</g>
<path fill-rule="evenodd" clip-rule="evenodd" d="M13.5703 13.2998H13.6297C14.8325 13.2998 15.7749 13.2998 16.5104 13.3988C17.2627 13.4998 17.8565 13.7113 18.3228 14.1771C18.789 14.6433 19 15.2371 19.101 15.9899C19.2 16.7249 19.2 17.6673 19.2 18.8701V18.916C19.2 19.9104 19.2 20.7241 19.1458 21.3867C19.0916 22.0535 18.9807 22.6093 18.7317 23.0719C18.6223 23.2756 18.4868 23.4585 18.3228 23.6226C17.8565 24.0888 17.2627 24.2998 16.5099 24.4008C15.7749 24.4998 14.8325 24.4998 13.6297 24.4998H13.5703C12.3675 24.4998 11.4251 24.4998 10.6896 24.4008C9.93734 24.2998 9.34348 24.0883 8.87725 23.6226C8.46415 23.2095 8.25057 22.6953 8.13753 22.0566C8.02553 21.43 8.00521 20.6501 8.00104 19.6822C8 19.4358 8 19.1754 8 18.9003V18.8701C8 17.6673 8 16.7249 8.09898 15.9894C8.20004 15.2371 8.41153 14.6433 8.87725 14.1771C9.34348 13.7108 9.93734 13.4998 10.6901 13.3988C11.4251 13.2998 12.3675 13.2998 13.5703 13.2998ZM10.7937 14.1729C10.128 14.2625 9.72636 14.4333 9.42995 14.7298C9.13302 15.0267 8.96268 15.4278 8.87308 16.0941C8.78244 16.7713 8.7814 17.661 8.7814 18.8998C8.7814 19.1754 8.7814 19.4343 8.78244 19.6786C8.7866 20.6548 8.80848 21.3695 8.90642 21.9202C9.00227 22.4593 9.16584 22.8057 9.42995 23.0699C9.72688 23.3668 10.128 23.5371 10.7943 23.6267C11.4715 23.7174 12.3612 23.7184 13.6 23.7184C14.8388 23.7184 15.7285 23.7174 16.4057 23.6267C17.072 23.5371 17.4736 23.3663 17.7706 23.0699C17.88 22.9605 17.969 22.8396 18.0435 22.7016C18.2165 22.3807 18.316 21.9514 18.367 21.3237C18.4181 20.696 18.4186 19.9135 18.4186 18.8998C18.4186 17.661 18.4176 16.7713 18.3269 16.0941C18.2373 15.4278 18.0665 15.0262 17.77 14.7292C17.4731 14.4328 17.072 14.2625 16.4057 14.1729C15.7285 14.0822 14.8388 14.0812 13.6 14.0812C12.3612 14.0812 11.471 14.0822 10.7937 14.1729Z" fill="white"/>
<path d="M18.4181 19.5665L18.3024 19.5509C16.8209 19.3457 15.4649 20.1156 14.7747 21.2768C13.8839 19.0237 11.5309 17.487 8.90173 17.8647L8.784 17.8813C8.7814 18.1923 8.7814 18.5305 8.7814 18.8998C8.7814 19.1754 8.7814 19.4343 8.78244 19.6786C8.7866 20.6548 8.80848 21.3695 8.90642 21.9202C9.00227 22.4593 9.16584 22.8057 9.42995 23.0699C9.72688 23.3668 10.128 23.5371 10.7943 23.6267C11.4715 23.7174 12.3612 23.7184 13.6 23.7184C14.8388 23.7184 15.7285 23.7174 16.4057 23.6267C17.072 23.5371 17.4736 23.3663 17.7706 23.0699C17.88 22.9605 17.969 22.8396 18.0435 22.7016C18.2165 22.3807 18.316 21.9514 18.367 21.3237C18.4066 20.8413 18.4155 20.2672 18.4181 19.5665Z" fill="white"/>
<path d="M16.7256 16.8161C16.7256 17.0924 16.6158 17.3574 16.4204 17.5528C16.225 17.7482 15.96 17.8579 15.6837 17.8579C15.4074 17.8579 15.1424 17.7482 14.947 17.5528C14.7516 17.3574 14.6419 17.0924 14.6419 16.8161C14.6419 16.5398 14.7516 16.2748 14.947 16.0794C15.1424 15.884 15.4074 15.7742 15.6837 15.7742C15.96 15.7742 16.225 15.884 16.4204 16.0794C16.6158 16.2748 16.7256 16.5398 16.7256 16.8161Z" fill="white"/>
</g>
<defs>
<filter id="filter0_d_1009_6597" x="17.2773" y="2.00586" width="12.8242" height="12.8867" filterUnits="userSpaceOnUse" color-interpolation-filters="sRGB">
<feFlood flood-opacity="0" result="BackgroundImageFix"/>
<feColorMatrix in="SourceAlpha" type="matrix" values="0 0 0 0 0 0 0 0 0 0 0 0 0 0 0 0 0 0 127 0" result="hardAlpha"/>
<feOffset dy="2"/>
<feGaussianBlur stdDeviation="1"/>
<feComposite in2="hardAlpha" operator="out"/>
<feColorMatrix type="matrix" values="0 0 0 0 0 0 0 0 0 0 0 0 0 0 0 0 0 0 0.04 0"/>
<feBlend mode="normal" in2="BackgroundImageFix" result="effect1_dropShadow_1009_6597"/>
<feBlend mode="normal" in="SourceGraphic" in2="effect1_dropShadow_1009_6597" result="shape"/>
</filter>
<clipPath id="clip0_1009_6597">
<rect width="32" height="32" fill="white" transform="translate(0 0.5)"/>
</clipPath>
</defs>
</svg>
