<svg width="33" height="48" viewBox="0 0 33 48" fill="none" xmlns="http://www.w3.org/2000/svg">
<path d="M28.9811 6.33984H3.62264C1.62191 6.33984 0 7.96176 0 9.96249V44.3776C0 46.3783 1.62191 48.0002 3.62264 48.0002H28.9811C30.9819 48.0002 32.6038 46.3783 32.6038 44.3776V9.96249C32.6038 7.96176 30.9819 6.33984 28.9811 6.33984Z" fill="#FFAB00"/>
<path d="M3 10.5H30V45H3V10.5Z" fill="#FFD666"/>
<path d="M23.25 40.5H3V10.5H30V34.3235L23.25 40.5Z" fill="#FFF5CC"/>
<path d="M19.9214 5.43396V3.62264C19.9214 2.66186 19.5398 1.74042 18.8604 1.06105C18.181 0.38167 17.2596 0 16.2988 0C15.338 0 14.4166 0.38167 13.7372 1.06105C13.0578 1.74042 12.6762 2.66186 12.6762 3.62264V5.43396H9.05351L7.24219 8.15094V10.8679H25.3554V8.15094L23.5441 5.43396H19.9214Z" fill="#FFD666"/>
<path d="M24 40.8396V34.5H30.3396L24 40.8396Z" fill="#FFAB00"/>
<path d="M16.2994 33.5077C13.9259 32.7165 11.8615 31.1986 10.3986 29.1689C8.93567 27.1393 8.14846 24.7008 8.14844 22.1989V18.1115C10.5189 18.1115 12.8448 17.4673 14.8775 16.2477L16.2994 15.3945L17.7213 16.2477C19.7539 17.4673 22.0798 18.1115 24.4503 18.1115V22.1989C24.4503 24.7008 23.6631 27.1393 22.2002 29.1689C20.7373 31.1986 18.6729 32.7165 16.2994 33.5077Z" fill="#2E89FE"/>
<path d="M16.3009 26.2662C16.1603 26.2662 16.0216 26.2335 15.8959 26.1706C15.7701 26.1077 15.6607 26.0164 15.5764 25.9039L12.8594 22.2813L14.3084 21.1945L16.3009 23.8511L23.7273 13.9492L25.1764 15.036L17.0254 25.9039C16.9411 26.0164 16.8317 26.1077 16.7059 26.1706C16.5802 26.2335 16.4415 26.2662 16.3009 26.2662Z" fill="#0B6CEA"/>
<path d="M6.33984 32.6055H10.8681V34.4168H6.33984V32.6055Z" fill="#FFAB00"/>
<path d="M6.33984 36.2266H12.6795V38.0379H6.33984V36.2266Z" fill="#FFAB00"/>
</svg>
