<svg width="24" height="24" viewBox="0 0 24 24" fill="none" xmlns="http://www.w3.org/2000/svg">
<path d="M2.162 8.50035C2 9.60335 2 11.0503 2 13.0003C2 16.7713 2 18.6573 3.172 19.8283C4.343 21.0003 6.229 21.0003 10 21.0003H14C17.771 21.0003 19.657 21.0003 20.828 19.8283C22 18.6573 22 16.7713 22 13.0003C22 11.0503 22 9.60435 21.838 8.50035C19.561 9.98035 18.102 10.9243 16.75 11.5053V12.0003C16.7523 12.1993 16.6754 12.3909 16.5363 12.5332C16.3973 12.6754 16.2074 12.7566 16.0085 12.7588C15.8096 12.7611 15.6179 12.6842 15.4757 12.5452C15.3334 12.4061 15.2523 12.2163 15.25 12.0173C13.1197 12.5789 10.8803 12.5789 8.75 12.0173C8.74775 12.2163 8.66657 12.4061 8.52432 12.5452C8.38207 12.6842 8.19041 12.7611 7.9915 12.7588C7.79259 12.7566 7.60272 12.6754 7.46366 12.5332C7.3246 12.3909 7.24775 12.1993 7.25 12.0003V11.5053C5.898 10.9233 4.44 9.98035 2.162 8.50035Z" fill="#1877F2"/>
<path fill-rule="evenodd" clip-rule="evenodd" d="M10.581 2.25035H10.561C10.447 2.25035 10.359 2.25035 10.275 2.25535C9.75543 2.28693 9.25549 2.46533 8.8333 2.7698C8.41111 3.07428 8.084 3.49232 7.89 3.97535C7.84738 4.08875 7.80737 4.20311 7.77 4.31835L7.766 4.33035C7.66312 4.60289 7.48909 4.84288 7.262 5.02535C7.034 5.03335 6.817 5.04235 6.609 5.05535C4.965 5.15135 3.922 5.42135 3.172 6.17235C2.92801 6.41561 2.72775 6.69909 2.58 7.01035C2.638 7.03035 2.694 7.05635 2.747 7.09135C4.847 8.45635 6.167 9.31135 7.264 9.85835C7.2998 9.67564 7.40228 9.51279 7.5515 9.40145C7.70072 9.29011 7.88601 9.23826 8.07135 9.25597C8.25668 9.27368 8.4288 9.35969 8.55424 9.49727C8.67967 9.63485 8.74945 9.81417 8.75 10.0003V10.4583C10.87 11.0983 13.13 11.0983 15.25 10.4583V10.0003C15.2493 9.81326 15.3185 9.63266 15.444 9.49397C15.5696 9.35528 15.7425 9.26853 15.9287 9.25075C16.1149 9.23296 16.3011 9.28543 16.4506 9.39784C16.6002 9.51026 16.7023 9.6745 16.737 9.85835C17.833 9.31035 19.153 8.45635 21.253 7.09135C21.3051 7.05757 21.3612 7.03036 21.42 7.01035C21.2718 6.69933 21.0716 6.41592 20.828 6.17235C20.078 5.42235 19.035 5.15235 17.391 5.05435C17.194 5.04335 16.988 5.03435 16.773 5.02635C16.521 4.82145 16.3264 4.5548 16.208 4.25235L16.205 4.24335C16.169 4.13635 16.142 4.05235 16.11 3.97435C15.9158 3.49151 15.5887 3.07367 15.1665 2.76939C14.7443 2.4651 14.2445 2.28685 13.725 2.25535C13.6301 2.25087 13.535 2.24921 13.44 2.25035H10.58H10.581ZM14.818 4.81635L14.813 4.80535L14.808 4.79335L14.804 4.78135L14.798 4.76635L14.788 4.73635L14.785 4.72835L14.783 4.72135L14.781 4.71535C14.7616 4.65446 14.7406 4.5941 14.718 4.53435C14.6299 4.31477 14.4812 4.12472 14.2893 3.98629C14.0974 3.84786 13.8702 3.76674 13.634 3.75235C13.5624 3.74984 13.4907 3.74918 13.419 3.75035H10.581C10.438 3.75035 10.398 3.75035 10.366 3.75235C10.1298 3.76674 9.90259 3.84786 9.7107 3.98629C9.51881 4.12472 9.37015 4.31477 9.282 4.53435L9.279 4.54135L9.271 4.56235C9.24371 4.63846 9.21804 4.71515 9.194 4.79235L9.192 4.79835L9.189 4.80535L9.187 4.81335L9.177 4.84335L9.171 4.85835L9.167 4.87035L9.162 4.88235L9.158 4.89235L9.157 4.89335C9.14307 4.92964 9.1284 4.96565 9.113 5.00135L10 5.00035H14.896C14.868 4.93989 14.842 4.87852 14.818 4.81635Z" fill="#1877F2"/>
</svg>
