<svg width="33" height="33" viewBox="0 0 33 33" fill="none" xmlns="http://www.w3.org/2000/svg">
<path d="M18.8705 0.5C19.4006 0.5 19.9091 0.710507 20.2841 1.08526L29.5121 10.3063C29.8875 10.6814 30.0984 11.1904 30.0984 11.7211V28.7667C30.0984 30.8285 28.3935 32.5 26.2904 32.5H6.70644C4.60334 32.5 2.89844 30.8285 2.89844 28.7667V4.23333C2.89844 2.17147 4.60334 0.5 6.70644 0.5H18.8705Z" fill="#E94848"/>
<g filter="url(#filter0_d_1009_6261)">
<path d="M28.4556 10.0405C28.7686 10.356 28.5451 10.8926 28.1006 10.8926H23.7008C21.6389 10.8926 19.7789 9.079 19.7789 7.06864V2.50669C19.7789 2.06025 20.3195 1.83762 20.6339 2.15459L28.4556 10.0405Z" fill="white" fill-opacity="0.24" shape-rendering="crispEdges"/>
</g>
<path d="M13.3533 13.292C12.6705 13.292 12.1089 13.8536 12.1089 14.5364C12.1089 15.3853 12.5806 16.4392 13.0772 17.4298C12.689 18.6451 12.2484 19.9475 11.685 21.0464C10.5318 21.4989 9.50333 21.8353 8.885 22.3337C8.87536 22.3435 8.86627 22.3539 8.85778 22.3648C8.63183 22.5958 8.5 22.9104 8.5 23.2475C8.5 23.9304 9.06158 24.492 9.74444 24.492C10.0774 24.492 10.3988 24.3677 10.6311 24.1303C10.6391 24.1242 10.6469 24.1177 10.6544 24.1109C11.1096 23.5674 11.6463 22.5815 12.1244 21.6803C13.2265 21.2468 14.3815 20.8057 15.4961 20.5409C16.3098 21.1966 17.4869 21.6298 18.4556 21.6298C19.1384 21.6298 19.7 21.0682 19.7 20.3853C19.7 19.7025 19.1384 19.1409 18.4556 19.1409C17.6787 19.1409 16.5498 19.4182 15.6867 19.7087C14.987 19.0519 14.3442 18.2316 13.8822 17.3598C14.2123 16.3429 14.5978 15.3254 14.5978 14.5364C14.5978 13.8536 14.0362 13.292 13.3533 13.292ZM13.3533 14.0387C13.6327 14.0387 13.8511 14.2571 13.8511 14.5364C13.8511 14.9099 13.6511 15.5976 13.4194 16.337C13.1099 15.6177 12.8556 14.9277 12.8556 14.5364C12.8556 14.2571 13.074 14.0387 13.3533 14.0387ZM13.5672 18.297C13.9415 18.8924 14.3799 19.4463 14.8583 19.9381C14.1203 20.1399 13.3996 20.3985 12.6883 20.6692C13.0319 19.8939 13.3069 19.0893 13.5672 18.297ZM18.4556 19.8875C18.7349 19.8875 18.9533 20.106 18.9533 20.3853C18.9533 20.6647 18.7349 20.8831 18.4556 20.8831C17.8948 20.8831 17.0977 20.63 16.4606 20.2764C17.1919 20.0696 17.99 19.8875 18.4556 19.8875ZM11.0278 22.1159C10.6778 22.7405 10.33 23.3236 10.0867 23.617C10.0036 23.6965 9.89299 23.7453 9.74444 23.7453C9.46511 23.7453 9.24667 23.5269 9.24667 23.2475C9.24667 23.1161 9.30254 22.9855 9.37889 22.9014C9.67082 22.6755 10.3059 22.4048 11.0278 22.1159Z" fill="white"/>
<defs>
<filter id="filter0_d_1009_6261" x="17.7773" y="2.00586" width="12.8242" height="12.8867" filterUnits="userSpaceOnUse" color-interpolation-filters="sRGB">
<feFlood flood-opacity="0" result="BackgroundImageFix"/>
<feColorMatrix in="SourceAlpha" type="matrix" values="0 0 0 0 0 0 0 0 0 0 0 0 0 0 0 0 0 0 127 0" result="hardAlpha"/>
<feOffset dy="2"/>
<feGaussianBlur stdDeviation="1"/>
<feComposite in2="hardAlpha" operator="out"/>
<feColorMatrix type="matrix" values="0 0 0 0 0 0 0 0 0 0 0 0 0 0 0 0 0 0 0.04 0"/>
<feBlend mode="normal" in2="BackgroundImageFix" result="effect1_dropShadow_1009_6261"/>
<feBlend mode="normal" in="SourceGraphic" in2="effect1_dropShadow_1009_6261" result="shape"/>
</filter>
</defs>
</svg>
