<svg width="80" height="80" viewBox="0 0 80 80" fill="none" xmlns="http://www.w3.org/2000/svg">
<path d="M67.0615 13.3336C65.395 11.6669 26.608 43.1942 23.5043 49.71C23.5043 49.71 23.3748 74.0842 27.8461 74.7878C30.2651 74.7878 34.702 61.946 35.6366 59.1582C35.7561 58.8018 35.9196 58.488 36.1475 58.189C45.8946 45.4033 68.7088 14.9811 67.0615 13.3336Z" fill="#0B6CEA"/>
<path d="M9.30698 32.5824C7.21487 34.0124 7.13488 36.7016 9.04118 38.3714C11.5912 40.605 16.0177 44.2192 23.5068 49.7212C23.5069 49.7137 23.5069 49.7099 23.5069 49.7099C26.6106 43.1941 65.3976 11.6668 67.0641 13.3335C68.7114 14.981 45.8972 45.4032 36.1501 58.1889C35.9222 58.4879 35.7587 58.8018 35.6392 59.1581C34.7379 61.8465 30.5798 73.8843 28.1151 74.7398C33.3859 73.7237 38.6334 69.508 43.4962 63.6857C49.6655 67.7583 54.0322 70.3808 56.6866 71.9032C58.5438 72.9684 60.822 72.5727 61.7983 70.6674C67.4355 59.6661 73.7878 27.0651 74.9826 9.98563C75.1753 7.23095 72.9435 5.02579 70.2272 5.52281C53.3145 8.61738 20.882 24.6699 9.30698 32.5824Z" fill="#1977F2"/>
<path d="M27.8487 74.7877C27.8486 74.7876 27.8488 74.7879 27.8487 74.7877V74.7877Z" fill="#1977F2"/>
<g style="mix-blend-mode:overlay" filter="url(#filter0_i_604_18622)">
<path d="M9.30698 32.5824C7.21487 34.0124 7.13488 36.7016 9.04118 38.3714C11.5912 40.605 16.0177 44.2192 23.5068 49.7212C23.5069 49.7137 23.5069 49.7099 23.5069 49.7099C26.6106 43.1941 65.3976 11.6668 67.0641 13.3335C68.7114 14.981 45.8972 45.4032 36.1501 58.1889C35.9222 58.4879 35.7587 58.8018 35.6392 59.1581C34.7379 61.8465 30.5798 73.8843 28.1151 74.7398C33.3859 73.7237 38.6334 69.508 43.4962 63.6857C49.6655 67.7583 54.0322 70.3808 56.6866 71.9032C58.5438 72.9684 60.822 72.5727 61.7983 70.6674C67.4355 59.6661 73.7878 27.0651 74.9826 9.98563C75.1753 7.23095 72.9435 5.02579 70.2272 5.52281C53.3145 8.61738 20.882 24.6699 9.30698 32.5824Z" fill="white" fill-opacity="0.08"/>
<path d="M27.8487 74.7877C27.8486 74.7876 27.8488 74.7879 27.8487 74.7877V74.7877Z" fill="white" fill-opacity="0.08"/>
</g>
<defs>
<filter id="filter0_i_604_18622" x="5.67188" y="3.45247" width="69.3242" height="71.3353" filterUnits="userSpaceOnUse" color-interpolation-filters="sRGB">
<feFlood flood-opacity="0" result="BackgroundImageFix"/>
<feBlend mode="normal" in="SourceGraphic" in2="BackgroundImageFix" result="shape"/>
<feColorMatrix in="SourceAlpha" type="matrix" values="0 0 0 0 0 0 0 0 0 0 0 0 0 0 0 0 0 0 127 0" result="hardAlpha"/>
<feOffset dx="-2" dy="-2"/>
<feGaussianBlur stdDeviation="2"/>
<feComposite in2="hardAlpha" operator="arithmetic" k2="-1" k3="1"/>
<feColorMatrix type="matrix" values="0 0 0 0 0 0 0 0 0 0 0 0 0 0 0 0 0 0 0.24 0"/>
<feBlend mode="normal" in2="shape" result="effect1_innerShadow_604_18622"/>
</filter>
</defs>
</svg>
