<svg width="48" height="43" viewBox="0 0 48 43" fill="none" xmlns="http://www.w3.org/2000/svg">
<path d="M48 25.0632L40.9696 17.4036C40.4528 16.8402 39.7234 16.5195 38.9589 16.5195H30.2307L30.2305 37.4909H33.569C33.569 34.8533 35.7073 32.715 38.345 32.715C40.9827 32.715 43.1209 34.8533 43.1209 37.4909H45.2703C45.9942 37.4911 46.6885 37.2035 47.2004 36.6916C47.7123 36.1797 47.9998 35.4854 47.9997 34.7615L48 25.0632Z" fill="#FFAB00"/>
<ellipse cx="38.3502" cy="37.4869" rx="4.77594" ry="4.77594" fill="#B76E00"/>
<path fill-rule="evenodd" clip-rule="evenodd" d="M30.2294 25.0571V37.4849H15.6937C15.6937 34.8469 13.5551 32.7084 10.9172 32.7084C8.27917 32.7084 6.14066 34.8469 6.14066 37.4849H2.72943C2.0055 37.485 1.31119 37.1975 0.7993 36.6856C0.287407 36.1737 -0.000118572 35.4794 3.66811e-08 34.7554V11.9677C-0.000118572 11.2438 0.287407 10.5495 0.7993 10.0376C1.31119 9.52569 2.0055 9.23816 2.72943 9.23828H5.69022C5.86044 14.0506 9.81095 17.8638 14.6263 17.8638C19.4416 17.8638 23.3921 14.0506 23.5623 9.23828H27.4999C29.0073 9.2384 30.2293 10.4603 30.2294 11.9677V25.0571Z" fill="#FFD666"/>
<path fill-rule="evenodd" clip-rule="evenodd" d="M23.5668 8.94162C23.5668 9.04221 23.5657 9.14281 23.5612 9.24228C23.391 14.0546 19.4405 17.8678 14.6252 17.8678C9.80991 17.8678 5.8594 14.0546 5.68918 9.24228C5.68471 9.14281 5.68359 9.04221 5.68359 8.94162C5.68359 4.0033 9.68689 0 14.6252 0C19.5635 0 23.5668 4.0033 23.5668 8.94162Z" fill="#69C0FF"/>
<path fill-rule="evenodd" clip-rule="evenodd" d="M10.9205 32.7109C13.5582 32.7109 15.6964 34.8492 15.6964 37.4869C15.6964 40.1246 13.5582 42.2628 10.9205 42.2628C8.28279 42.2628 6.14453 40.1246 6.14453 37.4869C6.14459 34.8492 8.28282 32.711 10.9205 32.7109Z" fill="#B76E00"/>
<path fill-rule="evenodd" clip-rule="evenodd" d="M17.6102 12.521C17.4116 12.5212 17.2204 12.4457 17.0756 12.3097L14.0913 9.51546C13.9334 9.36751 13.8437 9.16074 13.8438 8.94431V3.14567C13.8438 2.71357 14.194 2.36328 14.6261 2.36328C15.0582 2.36328 15.4085 2.71357 15.4085 3.14567V8.60565L18.1451 11.168C18.3796 11.3875 18.4561 11.728 18.338 12.0266C18.22 12.3253 17.9315 12.5216 17.6103 12.5215L17.6102 12.521Z" fill="#096DD9"/>
</svg>
