<svg width="41" height="41" viewBox="0 0 41 41" fill="none" xmlns="http://www.w3.org/2000/svg">
<path d="M36.9987 20.5005C36.9987 20.3171 36.8987 20.1338 36.8487 19.9505C36.7716 19.627 36.6713 19.3095 36.5487 19.0005C36.4654 18.8005 36.3487 18.6005 36.2487 18.3838C36.1487 18.1671 35.9987 17.8838 35.8487 17.6505C35.6987 17.4171 35.4987 17.3005 35.4987 17.1671C35.4987 17.0338 35.1654 16.7505 34.982 16.5505C34.7987 16.3505 34.632 16.2171 34.4487 16.0505L33.832 15.5005L33.232 15.1005C32.9965 14.9563 32.7515 14.8282 32.4987 14.7171L31.8487 14.4171C31.5765 14.3163 31.2981 14.2328 31.0154 14.1671C30.7914 14.1012 30.563 14.0511 30.332 14.0171L29.9487 13.8338C29.2686 11.8689 27.993 10.1648 26.2993 8.95873C24.6055 7.75263 22.578 7.10449 20.4987 7.10449C18.4194 7.10449 16.3919 7.75263 14.6981 8.95873C13.0044 10.1648 11.7288 11.8689 11.0487 13.8338L10.7487 13.9171C10.5177 13.9511 10.2894 14.0012 10.0654 14.0671C9.78259 14.1328 9.50426 14.2163 9.23203 14.3171L8.58203 14.6171C8.32924 14.7282 8.08423 14.8563 7.8487 15.0005L7.2487 15.5005L6.63203 16.0171C6.4487 16.1838 6.26536 16.3338 6.0987 16.5171C5.93203 16.7005 5.7487 16.9338 5.58203 17.1338C5.41536 17.3338 5.28203 17.5171 5.1487 17.7338C5.01536 17.9505 4.88203 18.2171 4.7487 18.4671C4.61536 18.7171 4.53203 18.8838 4.4487 19.0838C4.3261 19.3929 4.22584 19.7104 4.1487 20.0338C4.1487 20.2171 4.03203 20.4005 3.9987 20.5838C3.89496 21.1054 3.83917 21.6354 3.83203 22.1671C3.83984 22.676 3.89002 23.1833 3.98203 23.6838C3.98203 23.8505 4.06536 24.0005 4.0987 24.1671C4.18108 24.4946 4.28122 24.8172 4.3987 25.1338L4.5987 25.6171C4.74541 25.9385 4.91242 26.2503 5.0987 26.5505L5.33203 26.9171C5.35601 26.9638 5.38389 27.0084 5.41536 27.0505L5.4987 27.1671C6.27492 28.2021 7.28146 29.0421 8.43859 29.6207C9.59571 30.1992 10.8717 30.5005 12.1654 30.5005H17.1654V28.2171C16.659 28.5109 16.0841 28.6661 15.4987 28.6671C14.5958 28.6587 13.7329 28.2932 13.0987 27.6505C12.7942 27.3354 12.5548 26.9635 12.3941 26.5558C12.2335 26.1482 12.1548 25.7129 12.1625 25.2748C12.1703 24.8368 12.2643 24.4045 12.4392 24.0028C12.6142 23.6011 12.8666 23.2379 13.182 22.9338L18.182 18.1005C18.8041 17.5009 19.6347 17.1662 20.4987 17.1671C21.3813 17.1708 22.2264 17.5245 22.8487 18.1505L27.8487 23.1505C28.4695 23.775 28.818 24.6198 28.818 25.5005C28.818 26.3811 28.4695 27.2259 27.8487 27.8505C27.2264 28.4764 26.3813 28.8301 25.4987 28.8338C24.9124 28.8393 24.3359 28.6836 23.832 28.3838V30.5005H28.832C30.1257 30.5005 31.4017 30.1992 32.5588 29.6207C33.7159 29.0421 34.7225 28.2021 35.4987 27.1671L35.582 27.0838C35.6135 27.0418 35.6414 26.9972 35.6654 26.9505L35.8987 26.5838C36.085 26.2836 36.252 25.9719 36.3987 25.6505L36.5987 25.1671C36.7162 24.8506 36.8163 24.5279 36.8987 24.2005C36.8987 24.0338 36.982 23.8838 37.0154 23.7171C37.1092 23.2056 37.1594 22.6871 37.1654 22.1671C37.1634 21.6075 37.1076 21.0494 36.9987 20.5005Z" fill="#919EAB"/>
<path d="M21.682 19.3171C21.3705 19.0117 20.9516 18.8407 20.5154 18.8407C20.0791 18.8407 19.6602 19.0117 19.3487 19.3171L14.3487 24.1505C14.1718 24.2964 14.027 24.4772 13.9232 24.6817C13.8195 24.8862 13.759 25.1098 13.7456 25.3387C13.7323 25.5676 13.7662 25.7968 13.8455 26.012C13.9247 26.2271 14.0475 26.4236 14.2061 26.5892C14.3648 26.7547 14.5559 26.8857 14.7675 26.974C14.9791 27.0624 15.2066 27.1061 15.4359 27.1024C15.6651 27.0988 15.8912 27.0479 16.0998 26.9529C16.3085 26.858 16.4954 26.7209 16.6487 26.5505L18.832 24.4338V33.8338C18.832 34.2758 19.0076 34.6997 19.3202 35.0123C19.6327 35.3249 20.0567 35.5005 20.4987 35.5005C20.9407 35.5005 21.3646 35.3249 21.6772 35.0123C21.9898 34.6997 22.1654 34.2758 22.1654 33.8338V24.5171L24.3154 26.6838C24.4703 26.84 24.6546 26.964 24.8577 27.0486C25.0608 27.1332 25.2787 27.1768 25.4987 27.1768C25.7187 27.1768 25.9366 27.1332 26.1397 27.0486C26.3428 26.964 26.5271 26.84 26.682 26.6838C26.8382 26.5288 26.9622 26.3445 27.0469 26.1414C27.1315 25.9383 27.175 25.7205 27.175 25.5005C27.175 25.2804 27.1315 25.0626 27.0469 24.8595C26.9622 24.6564 26.8382 24.4721 26.682 24.3171L21.682 19.3171Z" fill="#919EAB"/>
</svg>
