<svg width="81" height="80" viewBox="0 0 81 80" fill="none" xmlns="http://www.w3.org/2000/svg">
<path fill-rule="evenodd" clip-rule="evenodd" d="M33.8346 13.3335H47.168C59.738 13.3335 66.0246 13.3335 69.928 17.2402C73.8346 21.1435 73.8346 27.4302 73.8346 40.0002C73.8346 52.5702 73.8346 58.8568 69.928 62.7602C66.0246 66.6668 59.738 66.6668 47.168 66.6668H33.8346C21.2646 66.6668 14.978 66.6668 11.0746 62.7602C7.16797 58.8568 7.16797 52.5702 7.16797 40.0002C7.16797 27.4302 7.16797 21.1435 11.0746 17.2402C14.978 13.3335 21.2646 13.3335 33.8346 13.3335ZM44.668 30.0002C44.668 29.3371 44.9314 28.7012 45.4002 28.2324C45.869 27.7636 46.5049 27.5002 47.168 27.5002H63.8346C64.4977 27.5002 65.1336 27.7636 65.6024 28.2324C66.0712 28.7012 66.3346 29.3371 66.3346 30.0002C66.3346 30.6632 66.0712 31.2991 65.6024 31.7679C65.1336 32.2368 64.4977 32.5002 63.8346 32.5002H47.168C46.5049 32.5002 45.869 32.2368 45.4002 31.7679C44.9314 31.2991 44.668 30.6632 44.668 30.0002ZM48.0013 40.0002C48.0013 39.3371 48.2647 38.7012 48.7335 38.2324C49.2024 37.7636 49.8383 37.5002 50.5013 37.5002H63.8346C64.4977 37.5002 65.1336 37.7636 65.6024 38.2324C66.0712 38.7012 66.3346 39.3371 66.3346 40.0002C66.3346 40.6632 66.0712 41.2991 65.6024 41.7679C65.1336 42.2368 64.4977 42.5002 63.8346 42.5002H50.5013C49.8383 42.5002 49.2024 42.2368 48.7335 41.7679C48.2647 41.2991 48.0013 40.6632 48.0013 40.0002ZM51.3346 50.0002C51.3346 49.3371 51.598 48.7012 52.0669 48.2324C52.5357 47.7636 53.1716 47.5002 53.8346 47.5002H63.8346C64.4977 47.5002 65.1336 47.7636 65.6024 48.2324C66.0712 48.7012 66.3346 49.3371 66.3346 50.0002C66.3346 50.6632 66.0712 51.2991 65.6024 51.7679C65.1336 52.2368 64.4977 52.5002 63.8346 52.5002H53.8346C53.1716 52.5002 52.5357 52.2368 52.0669 51.7679C51.598 51.2991 51.3346 50.6632 51.3346 50.0002ZM37.168 30.0002C37.168 31.7683 36.4656 33.464 35.2153 34.7142C33.9651 35.9644 32.2694 36.6668 30.5013 36.6668C28.7332 36.6668 27.0375 35.9644 25.7873 34.7142C24.537 33.464 23.8346 31.7683 23.8346 30.0002C23.8346 28.2321 24.537 26.5364 25.7873 25.2861C27.0375 24.0359 28.7332 23.3335 30.5013 23.3335C32.2694 23.3335 33.9651 24.0359 35.2153 25.2861C36.4656 26.5364 37.168 28.2321 37.168 30.0002ZM30.5013 56.6668C43.8346 56.6668 43.8346 53.6835 43.8346 50.0002C43.8346 46.3168 37.868 43.3335 30.5013 43.3335C23.1346 43.3335 17.168 46.3168 17.168 50.0002C17.168 53.6835 17.168 56.6668 30.5013 56.6668Z" fill="#637381"/>
</svg>
