<svg width="48" height="49" viewBox="0 0 48 49" fill="none" xmlns="http://www.w3.org/2000/svg">
<path opacity="0.32" d="M4.56198 39.815C4.73932 41.5322 5.86521 42.8915 7.55375 43.251C10.219 43.8184 15.2432 44.5 24 44.5C32.7568 44.5 37.781 43.8184 40.4463 43.251C42.1348 42.8915 43.2607 41.5322 43.438 39.815C43.701 37.2688 44 32.5939 44 24.5C44 16.4061 43.701 11.7312 43.438 9.18502C43.2607 7.46777 42.1348 6.10848 40.4462 5.74901C37.781 5.18162 32.7568 4.5 24 4.5C15.2432 4.5 10.219 5.18162 7.55375 5.74901C5.86521 6.10848 4.73932 7.46777 4.56198 9.18502C4.29904 11.7312 4 16.4061 4 24.5C4 32.5939 4.29904 37.2688 4.56198 39.815Z" fill="#637381"/>
<path d="M27.8763 28.2117C30.5259 26.8165 32.3325 24.0359 32.3325 20.8333C32.3325 16.231 28.6015 12.5 23.9991 12.5C19.3968 12.5 15.6658 16.231 15.6658 20.8333C15.6658 24.036 17.4725 26.8168 20.1223 28.2119C16.5738 29.5639 13.8643 32.7184 13.025 36.6058C12.9089 37.1438 13.2049 37.6961 13.7468 37.7942C15.6916 38.1461 18.9123 38.5 24.0012 38.5C29.09 38.5 32.3107 38.1461 34.2555 37.7942C34.7954 37.6965 35.0907 37.1463 34.9751 36.6102C34.1369 32.7206 31.4265 29.5641 27.8763 28.2117Z" fill="#637381"/>
</svg>
