<svg width="80" height="80" viewBox="0 0 80 80" fill="none" xmlns="http://www.w3.org/2000/svg">
<path fill-rule="evenodd" clip-rule="evenodd" d="M75.1997 54.3331L49.633 11.9331C47.5321 8.64646 43.9005 6.65771 39.9997 6.65771C36.0989 6.65771 32.4673 8.64646 30.3664 11.9331L4.79968 54.3331C2.9615 57.3973 2.89797 61.2094 4.63302 64.3331C6.6396 67.8503 10.3838 70.0153 14.433 69.9998H65.5664C69.588 70.0427 73.3258 67.9323 75.3663 64.4665C77.1533 61.3086 77.0895 57.4305 75.1997 54.3331ZM39.9997 56.6665C38.1587 56.6665 36.6664 55.1741 36.6664 53.3331C36.6664 51.4922 38.1587 49.9998 39.9997 49.9998C41.8406 49.9998 43.333 51.4922 43.333 53.3331C43.333 55.1741 41.8406 56.6665 39.9997 56.6665ZM39.9997 46.6665C41.8406 46.6665 43.333 45.1741 43.333 43.3331V29.9998C43.333 28.1588 41.8406 26.6665 39.9997 26.6665C38.1587 26.6665 36.6664 28.1588 36.6664 29.9998V43.3331C36.6664 45.1741 38.1587 46.6665 39.9997 46.6665Z" fill="#FFAB00"/>
</svg>
