<svg width="24" height="24" viewBox="0 0 24 24" fill="none" xmlns="http://www.w3.org/2000/svg">
<path fill-rule="evenodd" clip-rule="evenodd" d="M22.5591 16.3002L14.8891 3.58018C14.2588 2.59418 13.1694 1.99756 11.9991 1.99756C10.8289 1.99756 9.73941 2.59418 9.10912 3.58018L1.43912 16.3002C0.88767 17.2194 0.868609 18.3631 1.38912 19.3002C1.9911 20.3553 3.11435 21.0048 4.32912 21.0002H19.6691C20.8756 21.0131 21.997 20.3799 22.6091 19.3402C23.1452 18.3928 23.1261 17.2294 22.5591 16.3002ZM11.9991 17.0002C11.4468 17.0002 10.9991 16.5525 10.9991 16.0002C10.9991 15.4479 11.4468 15.0002 11.9991 15.0002C12.5514 15.0002 12.9991 15.4479 12.9991 16.0002C12.9991 16.5525 12.5514 17.0002 11.9991 17.0002ZM11.9991 14.0002C12.5514 14.0002 12.9991 13.5525 12.9991 13.0002V9.00018C12.9991 8.4479 12.5514 8.00018 11.9991 8.00018C11.4468 8.00018 10.9991 8.4479 10.9991 9.00018V13.0002C10.9991 13.5525 11.4468 14.0002 11.9991 14.0002Z" fill="#FFAB00"/>
</svg>
